HIERARCHY
ROOT Hips
{
	OFFSET 0.000000 97.167313 0.000000
	CHANNELS 6 Xposition Yposition Zposition Xrotation Yrotation Zrotation
	JOINT Spine
	{
		OFFSET 0.000000 13.784798 0.064400
		CHANNELS 3 Xrotation Yrotation Zrotation
		JOINT Spine1
		{
			OFFSET 0.000000 12.037903 0.404700
			CHANNELS 3 Xrotation Yrotation Zrotation
			JOINT Spine2
			{
				OFFSET 0.000000 17.795601 0.420200
				CHANNELS 3 Xrotation Yrotation Zrotation
				JOINT Neck
				{
					OFFSET 0.000000 39.131302 11.954600
					CHANNELS 3 Xrotation Yrotation Zrotation
					JOINT Head
					{
						OFFSET 0.000000 14.456192 15.627699
						CHANNELS 3 Xrotation Yrotation Zrotation
						JOINT HeadTop_End
						{
							OFFSET 0.000000 15.703506 7.603401
							CHANNELS 3 Xrotation Yrotation Zrotation
							End Site
							{
								OFFSET 0.000000 17.447403 0.000000
							}
						}
					}
				}
				JOINT LeftShoulder
				{
					OFFSET 17.399500 24.608795 1.168800
					CHANNELS 3 Xrotation Yrotation Zrotation
					JOINT LeftArm
					{
						OFFSET 18.980635 5.765305 1.818600
						CHANNELS 3 Xrotation Yrotation Zrotation
						JOINT LeftForeArm
						{
							OFFSET 49.290169 0.000000 0.000000
							CHANNELS 3 Xrotation Yrotation Zrotation
							JOINT LeftHand
							{
								OFFSET 31.562012 0.000000 0.000000
								CHANNELS 3 Xrotation Yrotation Zrotation
								JOINT LeftHandThumb1
								{
									OFFSET 6.133995 -4.388519 7.076070
									CHANNELS 3 Xrotation Yrotation Zrotation
									JOINT LeftHandThumb2
									{
										OFFSET 6.037666 -3.485840 3.485847
										CHANNELS 3 Xrotation Yrotation Zrotation
										JOINT LeftHandThumb3
										{
											OFFSET 6.496506 -3.750763 3.750761
											CHANNELS 3 Xrotation Yrotation Zrotation
											JOINT LeftHandThumb4
											{
												OFFSET 5.616882 -3.242905 3.242910
												CHANNELS 3 Xrotation Yrotation Zrotation
												End Site
												{
													OFFSET -1.254608 7.132141 0.375429
												}
											}
										}
									}
								}
								JOINT LeftHandPinky1
								{
									OFFSET 18.920792 -0.453171 -11.426712
									CHANNELS 3 Xrotation Yrotation Zrotation
									JOINT LeftHandPinky2
									{
										OFFSET 4.919586 0.000000 0.000000
										CHANNELS 3 Xrotation Yrotation Zrotation
										JOINT LeftHandPinky3
										{
											OFFSET 5.233047 0.000000 0.000000
											CHANNELS 3 Xrotation Yrotation Zrotation
											JOINT LeftHandPinky4
											{
												OFFSET 5.571716 0.000000 0.000000
												CHANNELS 3 Xrotation Yrotation Zrotation
												End Site
												{
													OFFSET -3.459808 4.342407 -0.466164
												}
											}
										}
									}
								}
								JOINT LeftHandRing1
								{
									OFFSET 22.726120 -0.094986 -6.500475
									CHANNELS 3 Xrotation Yrotation Zrotation
									JOINT LeftHandRing2
									{
										OFFSET 6.408615 0.000000 0.000000
										CHANNELS 3 Xrotation Yrotation Zrotation
										JOINT LeftHandRing3
										{
											OFFSET 6.150223 0.000000 0.000000
											CHANNELS 3 Xrotation Yrotation Zrotation
											JOINT LeftHandRing4
											{
												OFFSET 6.145386 0.000000 0.000000
												CHANNELS 3 Xrotation Yrotation Zrotation
												End Site
												{
													OFFSET -3.671402 4.923981 -0.202372
												}
											}
										}
									}
								}
								JOINT LeftHandMiddle1
								{
									OFFSET 23.373947 0.000000 0.000001
									CHANNELS 3 Xrotation Yrotation Zrotation
									JOINT LeftHandMiddle2
									{
										OFFSET 6.996567 0.000000 0.000000
										CHANNELS 3 Xrotation Yrotation Zrotation
										JOINT LeftHandMiddle3
										{
											OFFSET 7.015945 0.000000 0.000000
											CHANNELS 3 Xrotation Yrotation Zrotation
											JOINT LeftHandMiddle4
											{
												OFFSET 7.721573 0.000000 0.000000
												CHANNELS 3 Xrotation Yrotation Zrotation
												End Site
												{
													OFFSET -4.651108 6.158463 0.251582
												}
											}
										}
									}
								}
								JOINT LeftHandIndex1
								{
									OFFSET 21.310577 -0.490082 6.209344
									CHANNELS 3 Xrotation Yrotation Zrotation
									JOINT LeftHandIndex2
									{
										OFFSET 7.536453 0.000000 0.000000
										CHANNELS 3 Xrotation Yrotation Zrotation
										JOINT LeftHandIndex3
										{
											OFFSET 7.512344 0.000000 0.000000
											CHANNELS 3 Xrotation Yrotation Zrotation
											JOINT LeftHandIndex4
											{
												OFFSET 10.212402 0.000000 0.000001
												CHANNELS 3 Xrotation Yrotation Zrotation
												End Site
												{
													OFFSET -5.180801 8.690506 1.388433
												}
											}
										}
									}
								}
							}
						}
					}
				}
				JOINT RightShoulder
				{
					OFFSET -17.399500 24.608795 1.168800
					CHANNELS 3 Xrotation Yrotation Zrotation
					JOINT RightArm
					{
						OFFSET -18.980635 5.765305 1.818600
						CHANNELS 3 Xrotation Yrotation Zrotation
						JOINT RightForeArm
						{
							OFFSET -49.290169 0.000000 0.000000
							CHANNELS 3 Xrotation Yrotation Zrotation
							JOINT RightHand
							{
								OFFSET -31.562012 0.000000 0.000000
								CHANNELS 3 Xrotation Yrotation Zrotation
								JOINT RightHandThumb1
								{
									OFFSET -6.133995 -4.388519 7.076070
									CHANNELS 3 Xrotation Yrotation Zrotation
									JOINT RightHandThumb2
									{
										OFFSET -6.037666 -3.485840 3.485847
										CHANNELS 3 Xrotation Yrotation Zrotation
										JOINT RightHandThumb3
										{
											OFFSET -6.496506 -3.750763 3.750761
											CHANNELS 3 Xrotation Yrotation Zrotation
											JOINT RightHandThumb4
											{
												OFFSET -5.616882 -3.242905 3.242910
												CHANNELS 3 Xrotation Yrotation Zrotation
												End Site
												{
													OFFSET 1.254608 7.132141 0.375429
												}
											}
										}
									}
								}
								JOINT RightHandIndex1
								{
									OFFSET -21.310577 -0.490082 6.209344
									CHANNELS 3 Xrotation Yrotation Zrotation
									JOINT RightHandIndex2
									{
										OFFSET -7.536453 0.000000 0.000000
										CHANNELS 3 Xrotation Yrotation Zrotation
										JOINT RightHandIndex3
										{
											OFFSET -7.512344 0.000000 0.000000
											CHANNELS 3 Xrotation Yrotation Zrotation
											JOINT RightHandIndex4
											{
												OFFSET -10.212402 0.000000 0.000001
												CHANNELS 3 Xrotation Yrotation Zrotation
												End Site
												{
													OFFSET 5.180801 8.690506 1.388433
												}
											}
										}
									}
								}
								JOINT RightHandMiddle1
								{
									OFFSET -23.373947 0.000000 0.000001
									CHANNELS 3 Xrotation Yrotation Zrotation
									JOINT RightHandMiddle2
									{
										OFFSET -6.996567 0.000000 0.000000
										CHANNELS 3 Xrotation Yrotation Zrotation
										JOINT RightHandMiddle3
										{
											OFFSET -7.015945 0.000000 0.000000
											CHANNELS 3 Xrotation Yrotation Zrotation
											JOINT RightHandMiddle4
											{
												OFFSET -7.721573 0.000000 0.000000
												CHANNELS 3 Xrotation Yrotation Zrotation
												End Site
												{
													OFFSET 4.651108 6.158463 0.251582
												}
											}
										}
									}
								}
								JOINT RightHandRing1
								{
									OFFSET -22.726120 -0.094986 -6.500475
									CHANNELS 3 Xrotation Yrotation Zrotation
									JOINT RightHandRing2
									{
										OFFSET -6.408615 0.000000 0.000000
										CHANNELS 3 Xrotation Yrotation Zrotation
										JOINT RightHandRing3
										{
											OFFSET -6.150223 0.000000 0.000000
											CHANNELS 3 Xrotation Yrotation Zrotation
											JOINT RightHandRing4
											{
												OFFSET -6.145386 0.000000 0.000000
												CHANNELS 3 Xrotation Yrotation Zrotation
												End Site
												{
													OFFSET 3.671402 4.923981 -0.202372
												}
											}
										}
									}
								}
								JOINT RightHandPinky1
								{
									OFFSET -18.920792 -0.453171 -11.426712
									CHANNELS 3 Xrotation Yrotation Zrotation
									JOINT RightHandPinky2
									{
										OFFSET -4.919586 0.000000 0.000000
										CHANNELS 3 Xrotation Yrotation Zrotation
										JOINT RightHandPinky3
										{
											OFFSET -5.233047 0.000000 0.000000
											CHANNELS 3 Xrotation Yrotation Zrotation
											JOINT RightHandPinky4
											{
												OFFSET -5.571716 0.000000 0.000000
												CHANNELS 3 Xrotation Yrotation Zrotation
												End Site
												{
													OFFSET 3.459808 4.342407 -0.466164
												}
											}
										}
									}
								}
							}
						}
					}
				}
			}
		}
	}
	JOINT LeftUpLeg
	{
		OFFSET 19.899099 -7.885101 -3.429500
		CHANNELS 3 Xrotation Yrotation Zrotation
		JOINT LeftLeg
		{
			OFFSET 1.745560 -36.997807 10.304700
			CHANNELS 3 Xrotation Yrotation Zrotation
			JOINT LeftFoot
			{
				OFFSET -1.745558 -29.803308 -13.615400
				CHANNELS 3 Xrotation Yrotation Zrotation
				JOINT LeftToeBase
				{
					OFFSET 1.181900 -18.539904 15.226099
					CHANNELS 3 Xrotation Yrotation Zrotation
					JOINT LeftToe_End
					{
						OFFSET -0.863701 1.402801 16.534700
						CHANNELS 3 Xrotation Yrotation Zrotation
						End Site
						{
							OFFSET 0.000000 16.616566 0.000000
						}
					}
				}
			}
		}
	}
	JOINT RightUpLeg
	{
		OFFSET -19.899099 -7.885101 -3.429500
		CHANNELS 3 Xrotation Yrotation Zrotation
		JOINT RightLeg
		{
			OFFSET -1.745560 -36.997807 10.304700
			CHANNELS 3 Xrotation Yrotation Zrotation
			JOINT RightFoot
			{
				OFFSET 1.745558 -29.803308 -13.615400
				CHANNELS 3 Xrotation Yrotation Zrotation
				JOINT RightToeBase
				{
					OFFSET -1.181900 -18.539904 15.226099
					CHANNELS 3 Xrotation Yrotation Zrotation
					JOINT RightToe_End
					{
						OFFSET 0.863701 1.402801 16.534700
						CHANNELS 3 Xrotation Yrotation Zrotation
						End Site
						{
							OFFSET 0.000000 16.616566 0.000000
						}
					}
				}
			}
		}
	}
}
MOTION
Frames: 4
Frame Time: 0.033333
0.277303 29.306755 14.107800 5.499571 -13.589667 5.409207 20.380062 -8.730328 -6.512562 5.040235 -2.385552 -1.728880 5.454253 -4.547989 0.328101 5.208858 7.760146 -1.445177 -21.042327 15.131598 1.546672 0.000001 0.000000 -0.000000 3.271918 -13.946507 -1.973416 -35.636198 -8.423166 -32.266456 -0.000043 -97.350830 -0.000053 -149.102456 -27.134653 10.125809 9.873040 -5.863806 -9.427544 1.000146 0.731301 -1.438309 -7.335821 -0.421708 13.147346 0.000001 0.000002 -0.000002 4.135178 8.114449 -58.588693 4.970042 5.784589 -81.325000 0.636268 2.657130 -26.928222 0.000004 -0.000003 -0.000003 2.566136 7.151546 -54.470974 5.460168 5.838042 -86.162775 1.539992 3.959707 -42.490624 0.000001 -0.000001 0.000003 1.015371 5.899927 -50.379134 5.070884 5.798989 -82.324181 0.479032 2.322075 -23.309704 0.000001 -0.000002 0.000004 -3.156952 0.551120 -39.712817 4.788077 5.754027 -79.514870 0.549067 2.478166 -24.982044 -0.000000 0.000001 0.000001 -0.146731 25.944858 1.009435 -24.700973 20.507238 46.628762 0.000004 110.265959 0.000010 -37.776598 -20.993082 8.018541 20.470576 7.475578 18.843584 4.151732 -12.160918 -33.847986 -6.346162 -41.944031 -36.535495 -0.000003 0.000003 -0.000000 -0.887084 1.427995 12.684525 1.917402 -3.767475 53.934319 3.058011 -4.374568 69.896782 0.000002 -0.000003 -0.000002 0.770907 -5.199598 54.618827 5.563875 -4.568234 101.238587 4.771461 -4.655762 91.407882 0.000001 -0.000000 -0.000004 6.934475 -8.544287 63.908755 2.909300 -4.317389 67.934735 1.862851 -3.727192 53.099448 -0.000000 -0.000001 -0.000000 8.373388 -8.171770 73.989937 2.173705 -3.940964 57.745384 1.041994 -2.937909 39.049875 -0.000001 -0.000000 0.000002 -129.674830 -19.683229 21.935755 110.254819 0.907068 -2.853361 20.724056 1.732814 -3.309988 -0.000053 -0.000003 -0.000002 -0.000000 0.000000 -0.000000 -20.467159 -21.687056 -65.822321 116.367517 27.452578 12.195981 -10.541269 4.472844 -52.649519 -100.958194 -24.562002 1.628122 -0.000000 0.000002 -0.000001 
0.474743 29.129265 14.389180 4.912570 -14.141246 4.512289 20.865728 -8.037192 -5.338690 4.894619 -2.399037 -1.820108 5.303212 -4.481729 0.245948 4.808352 7.479461 -1.725384 -22.033926 15.661627 0.934041 0.000001 -0.000000 0.000000 3.271926 -13.946514 -1.973422 -34.289828 -7.328320 -32.542710 -0.000034 -97.946265 -0.000095 -150.402405 -27.914500 7.868407 8.087165 -5.369546 -8.047914 1.000144 0.731328 -1.438308 -7.335826 -0.421740 13.147355 0.000001 0.000001 0.000003 4.464029 8.205314 -61.832951 4.210901 5.617240 -73.694087 0.636271 2.657132 -26.928224 0.000003 -0.000001 -0.000006 2.859327 7.342353 -57.902696 4.683901 5.733855 -78.473956 1.464285 3.875614 -41.382590 0.000001 -0.000000 0.000002 1.195539 6.136009 -53.197325 4.574885 5.710661 -77.380565 0.474702 2.311987 -23.202593 -0.000002 -0.000004 0.000006 -3.295392 1.031009 -43.028754 4.146232 5.598031 -73.032173 0.562862 2.507540 -25.299166 -0.000002 -0.000001 0.000001 -0.108481 25.587316 0.793043 -24.499598 21.879879 45.322318 0.000079 109.438120 -0.000052 -38.180238 -20.832699 8.684233 20.470567 7.475578 18.843577 4.151731 -12.160916 -33.847983 -6.346167 -41.944038 -36.535491 0.000003 -0.000006 -0.000002 -0.887084 1.427993 12.684524 1.917399 -3.767471 53.934319 3.058010 -4.374569 69.896775 -0.000001 -0.000001 0.000001 0.770908 -5.199596 54.618823 5.563874 -4.568237 101.238594 4.771462 -4.655764 91.407889 -0.000000 -0.000000 -0.000007 6.934475 -8.544288 63.908755 2.909300 -4.317388 67.934735 1.862852 -3.727195 53.099451 -0.000001 -0.000001 -0.000000 8.373388 -8.171769 73.989937 2.173707 -3.940964 57.745384 1.041995 -2.937903 39.049872 -0.000001 0.000001 0.000002 -131.337229 -19.266191 21.000778 111.003155 0.372506 -1.996097 21.361567 3.335126 -2.859115 -0.000053 -0.000005 -0.000002 -0.000000 0.000000 0.000000 -19.869136 -21.064151 -64.029923 116.473358 27.003952 11.236572 -10.515868 3.698963 -51.329678 -100.913019 -24.522807 1.667770 0.000002 0.000000 0.000000 
0.654912 28.949486 14.593773 4.264707 -14.770180 3.477536 21.443717 -7.301909 -3.971175 4.750461 -2.423186 -1.917745 5.154861 -4.419828 0.158560 4.399791 7.173002 -2.016347 -22.981546 16.250024 0.689250 0.000003 0.000000 0.000000 3.271922 -13.946513 -1.973419 -32.973469 -6.261994 -32.824588 0.000041 -98.471957 -0.000013 -151.958499 -28.622647 5.305561 6.006934 -4.890934 -6.472897 1.000147 0.731322 -1.438312 -7.335823 -0.421752 13.147351 0.000000 -0.000003 -0.000001 4.845747 8.286431 -65.543882 3.379566 5.305102 -64.975719 0.636274 2.657132 -26.928224 -0.000001 0.000002 -0.000005 3.208105 7.538744 -61.829516 3.823054 5.489503 -69.687628 1.379749 3.777717 -40.115897 0.000000 -0.000000 0.000002 1.415679 6.394807 -56.422151 4.019685 5.558019 -71.730291 0.469778 2.300492 -23.080092 -0.000000 -0.000002 0.000002 -3.422995 1.592019 -46.818905 3.439784 5.332684 -65.624936 0.578835 2.541001 -25.661811 -0.000000 0.000001 -0.000001 -0.080551 25.238961 0.571079 -24.364721 23.408054 43.798492 -0.000024 108.559553 0.000063 -38.625232 -20.692377 9.330496 20.470565 7.475575 18.843578 4.151732 -12.160914 -33.847986 -6.346164 -41.944038 -36.535495 0.000000 -0.000007 -0.000005 -0.887082 1.427994 12.684522 1.917408 -3.767472 53.934322 3.058008 -4.374571 69.896775 -0.000003 0.000000 0.000001 0.770910 -5.199594 54.618820 5.563873 -4.568237 101.238594 4.771462 -4.655761 91.407889 0.000001 0.000000 -0.000004 6.934477 -8.544286 63.908755 2.909299 -4.317391 67.934728 1.862851 -3.727193 53.099451 -0.000001 0.000001 -0.000003 8.373387 -8.171771 73.989937 2.173703 -3.940964 57.745377 1.041997 -2.937903 39.049875 0.000002 -0.000000 0.000007 -133.278998 -18.788739 19.577851 111.677069 -0.031340 -0.806949 22.377006 5.148095 -2.761978 -0.000053 -0.000005 -0.000002 -0.000000 0.000000 -0.000000 -19.509004 -20.474515 -62.796725 116.481158 26.388870 10.541629 -9.944480 3.518726 -50.581980 -101.010042 -24.616692 1.584904 0.000001 0.000000 0.000002 
0.787459 28.748489 14.707985 3.628774 -15.399578 2.493763 21.946509 -6.584796 -2.683145 4.605743 -2.451167 -2.013546 5.005844 -4.358425 0.067787 4.015995 6.995367 -2.251943 -23.530092 16.571161 0.498619 -0.000001 -0.000000 0.000000 3.271909 -13.946512 -1.973420 -31.579947 -5.289328 -33.199579 -0.000013 -98.954579 -0.000078 -153.577077 -29.296949 2.614729 3.800238 -4.491921 -4.838040 1.000145 0.731306 -1.438307 -7.335815 -0.421724 13.147349 -0.000001 0.000002 -0.000002 5.248305 8.344790 -69.411190 2.574980 4.850537 -55.904019 0.636271 2.657136 -26.928224 -0.000000 -0.000001 -0.000004 3.585183 7.717668 -65.923504 2.977543 5.098962 -60.543589 1.294000 3.673781 -38.796547 -0.000000 0.000000 0.000003 1.660327 6.650886 -59.784591 3.460467 5.341960 -65.847402 0.464653 2.288474 -22.952501 0.000001 0.000002 0.000004 -3.520052 2.188381 -50.766631 2.747087 4.962297 -57.915968 0.595710 2.575801 -26.039613 -0.000000 0.000001 -0.000001 -0.053957 24.889086 0.349877 -24.150169 24.875744 42.268776 -0.000037 107.691162 0.000075 -39.030392 -20.538872 10.070980 20.470567 7.475575 18.843577 4.151735 -12.160915 -33.847986 -6.346159 -41.944041 -36.535495 0.000002 -0.000001 -0.000001 -0.887082 1.427989 12.684524 1.917405 -3.767471 53.934319 3.058008 -4.374572 69.896768 -0.000000 -0.000001 0.000001 0.770912 -5.199598 54.618817 5.563871 -4.568235 101.238587 4.771462 -4.655766 91.407889 -0.000000 0.000000 -0.000008 6.934475 -8.544289 63.908755 2.909302 -4.317388 67.934742 1.862852 -3.727196 53.099455 0.000001 -0.000001 -0.000005 8.373388 -8.171772 73.989937 2.173704 -3.940960 57.745384 1.041997 -2.937903 39.049875 -0.000000 0.000003 -0.000001 -135.182981 -18.436769 17.870854 112.217843 -0.368478 0.460937 23.688763 6.944108 -3.157680 -0.000053 -0.000005 -0.000002 -0.000000 0.000000 0.000000 -19.051320 -19.940042 -61.590288 116.630261 25.474335 9.828685 -9.586321 3.764468 -49.809967 -101.175913 -24.855559 1.477134 -0.000000 0.000003 0.000002 
